<svg xmlns="http://www.w3.org/2000/svg" viewBox="0 0 1440 6800" preserveAspectRatio="none">
  <g fill="none" stroke="#d4aa58" stroke-width="2" stroke-linecap="round" stroke-linejoin="round" opacity=".58">
    <path d="M0 170h150l45 45h175l38-38h170l58 58h150"/><path d="M92 0v245l52 52v174l-44 44v210"/><path d="M1440 365h-180l-54 54h-190l-43-43H780l-62 62H560"/><path d="M1348 0v158l-48 48v205l66 66v192"/><path d="M0 735h220l58-58h165l62 62h230l42-42h195"/><path d="M1180 550v178l-53 53v202l48 48v182"/><path d="M350 390v184l54 54v174l-76 76v184"/><path d="M1440 1040h-212l-48-48h-184l-74 74H726l-62-62H470"/><path d="M0 1240h112l72 72h225l48-48h166l58 58h260"/><path d="M820 890v178l-54 54v246l62 62v208"/><path d="M138 1090v236l46 46v162l-72 72v192"/><path d="M1440 1610h-260l-64-64H930l-49 49H696l-82-82H432"/><path d="M1112 1350v180l72 72v198l-58 58v190"/><path d="M0 1900h238l44-44h174l78 78h248l52-52h166"/><path d="M518 1620v224l-46 46v212l64 64v210"/><path d="M1440 2220h-166l-76-76h-230l-48 48H716l-58-58H476"/><path d="M1268 1950v188l-62 62v184l56 56v252"/><path d="M0 2530h180l62 62h214l48-48h194l78 78h214"/><path d="M236 2260v194l56 56v232l-68 68v188"/><path d="M880 2440v182l-48 48v196l70 70v210"/><path d="M1440 2870h-236l-58-58H982l-76 76H708l-52-52H442"/><path d="M0 3200h248l74-74h166l50 50h202l66-66h254"/><path d="M1150 2780v222l54 54v178l-82 82v240"/><path d="M380 2920v196l-62 62v246l70 70v212"/><path d="M1440 3520h-186l-82 82H948l-54-54H732l-68 68H490"/><path d="M0 3840h170l52-52h244l68 68h198l46-46h180"/><path d="M760 3470v204l58 58v212l-62 62v206"/><path d="M1320 3710v192l-72 72v196l54 54v228"/><path d="M0 4300h224l66 66h182l50-50h230l74 74h204"/><path d="M204 3980v210l64 64v230l-58 58v196"/><path d="M1440 4610h-202l-48-48h-214l-64 64H722l-72-72H456"/><path d="M1004 4260v224l-52 52v198l68 68v224"/><path d="M0 4960h190l76-76h206l42 42h194l64-64h238"/><path d="M414 4680v198l54 54v242l-74 74v196"/><path d="M1440 5270h-174l-68 68H974l-52-52H716l-84 84H430"/><path d="M1224 4990v214l-58 58v208l72 72v230"/><path d="M0 5620h242l52-52h186l70 70h224l58-58h202"/><path d="M790 5320v220l-62 62v194l54 54v230"/><path d="M160 5480v196l74 74v222l-52 52v196"/><path d="M1440 5970h-224l-74-74H956l-58 58H704l-66-66H450"/><path d="M0 6340h210l64-64h238l50 50h182l78-78h224"/><path d="M1120 5790v190l58 58v246l-68 68v248"/><path d="M520 6090v180l-72 72v202l56 56v200"/><path d="M1440 6620h-214l-58-58H960l-74 74H680l-46-46H420"/>
  </g>
  <g fill="#d4aa58" opacity=".82"><circle cx="150" cy="170" r="6"/><circle cx="408" cy="177" r="6"/><circle cx="973" cy="376" r="6"/><circle cx="278" cy="677" r="6"/><circle cx="777" cy="697" r="6"/><circle cx="1180" cy="992" r="6"/><circle cx="457" cy="1264" r="6"/><circle cx="922" cy="1595" r="6"/><circle cx="282" cy="1856" r="6"/><circle cx="920" cy="2192" r="6"/><circle cx="504" cy="2544" r="6"/><circle cx="1146" cy="2812" r="6"/><circle cx="322" cy="3126" r="6"/><circle cx="664" cy="3616" r="6"/><circle cx="778" cy="3810" r="6"/><circle cx="522" cy="4316" r="6"/><circle cx="952" cy="4536" r="6"/><circle cx="266" cy="4884" r="6"/><circle cx="922" cy="5286" r="6"/><circle cx="550" cy="5638" r="6"/><circle cx="1142" cy="5896" r="6"/><circle cx="274" cy="6276" r="6"/><circle cx="886" cy="6636" r="6"/></g>
  <g fill="#8f0712" stroke="#be1723" stroke-width="2" opacity=".95"><circle cx="636" cy="235" r="8"/><circle cx="1184" cy="1602" r="8"/><circle cx="776" cy="2622" r="8"/><circle cx="204" cy="4300" r="8"/><circle cx="1198" cy="5338" r="8"/><circle cx="562" cy="6326" r="8"/></g>
  <g fill="none" stroke="#d4aa58" stroke-width="2" opacity=".7">
    <rect x="690" y="490" width="140" height="96" rx="8"/><path d="M712 490v-26m24 26v-26m24 26v-26m24 26v-26m24 26v-26m-96 122v26m24-26v26m24-26v26m24-26v26m24-26v26m-118-98h-26m26 24h-26m26 24h-26m166-48h26m-26 24h26m-26 24h26"/>
    <rect x="1010" y="2360" width="124" height="86" rx="8"/><path d="M1032 2360v-24m26 24v-24m26 24v-24m26 24v-24m-78 110v24m26-24v24m26-24v24m26-24v24"/>
    <rect x="318" y="3710" width="132" height="92" rx="8"/><path d="M340 3710v-24m26 24v-24m26 24v-24m26 24v-24m-78 116v24m26-24v24m26-24v24m26-24v24"/>
    <rect x="780" y="5740" width="142" height="94" rx="8"/><path d="M804 5740v-24m26 24v-24m26 24v-24m26 24v-24m26 24v-24m-104 118v24m26-24v24m26-24v24m26-24v24m26-24v24"/>
  </g>
</svg>
